<svg xmlns="http://www.w3.org/2000/svg" version="1.1" xmlns:xlink="http://www.w3.org/1999/xlink" xmlns:svgjs="http://svgjs.dev/svgjs" width="2000" height="414" viewBox="0 0 2000 414"><g transform="matrix(1,0,0,1,-1.2121212121212466,1.1327775903980069)"><svg viewBox="0 0 396 82" data-background-color="#ffffff" preserveAspectRatio="xMidYMid meet" height="414" width="2000" xmlns="http://www.w3.org/2000/svg" xmlns:xlink="http://www.w3.org/1999/xlink"><g id="tight-bounds" transform="matrix(1,0,0,1,0.2400000000000091,-0.22436657587593345)"><svg viewBox="0 0 395.52 82.44873315175188" height="82.44873315175188" width="395.52"><g><svg viewBox="0 0 526.4067501139248 109.73293302342213" height="82.44873315175188" width="395.52"><g><rect width="4.540658334519521" height="109.73293302342213" x="114.45955163668407" y="0" fill="#ffffff" opacity="1" stroke-width="0" stroke="transparent" fill-opacity="1" class="rect-o$-0" data-fill-palette-color="primary" rx="1%" id="o$-0" data-palette-color="#ffffff"></rect></g><g transform="matrix(1,0,0,1,130.88675011392485,0.27296749508313667)"><svg viewBox="0 0 395.52 109.18699803325586" height="109.18699803325586" width="395.52"><g id="textblocktransform"><svg viewBox="0 0 395.52 109.18699803325586" height="109.18699803325586" width="395.52" id="textblock"><g><svg viewBox="0 0 395.52 109.18699803325586" height="109.18699803325586" width="395.52"><g transform="matrix(1,0,0,1,0,0)"><svg width="395.52" viewBox="2.2499999999999956 -35 279.65 74.20000000000002" height="109.18699803325586" data-palette-color="#ffffff"><svg></svg><svg></svg><g class="undefined-text-0" data-fill-palette-color="primary" id="text-0"><path d="M21-35c3.3 0 6.267 0.5 8.9 1.5 2.633 1 4.727 2.473 6.28 4.42 1.547 1.953 2.32 4.33 2.32 7.13v0h-10.55c0-1.433-0.633-2.593-1.9-3.48-1.267-0.88-2.8-1.32-4.6-1.32v0c-2.6 0-4.567 0.69-5.9 2.07-1.333 1.387-2 3.347-2 5.88v0 3.2c0 2.533 0.667 4.49 2 5.87 1.333 1.387 3.3 2.08 5.9 2.08v0c1.8 0 3.333-0.427 4.6-1.28 1.267-0.847 1.9-1.937 1.9-3.27v0h-7.8v-7h18.35v19.2h-5.7l-1.1-3.4c-3.133 2.667-7.233 4-12.3 4v0c-5.7 0-9.983-1.493-12.85-4.48-2.867-2.98-4.3-7.42-4.3-13.32v0c0-5.833 1.627-10.26 4.88-13.28 3.247-3.013 7.87-4.52 13.87-4.52zM62.45-35c5.933 0 10.517 1.517 13.75 4.55 3.233 3.033 4.85 7.45 4.85 13.25v0c0 5.8-1.617 10.217-4.85 13.25-3.233 3.033-7.817 4.55-13.75 4.55v0c-5.933 0-10.507-1.51-13.72-4.53-3.22-3.013-4.83-7.437-4.83-13.27v0c0-5.833 1.61-10.26 4.83-13.28 3.213-3.013 7.787-4.52 13.72-4.52zM62.45-26.75c-2.367 0-4.167 0.717-5.4 2.15-1.233 1.433-1.85 3.367-1.85 5.8v0 3.2c0 2.433 0.617 4.367 1.85 5.8 1.233 1.433 3.033 2.15 5.4 2.15v0c2.367 0 4.177-0.717 5.43-2.15 1.247-1.433 1.87-3.367 1.87-5.8v0-3.2c0-2.433-0.623-4.367-1.87-5.8-1.253-1.433-3.063-2.15-5.43-2.15zM121.25-13.85c0 4.7-1.483 8.283-4.45 10.75-2.967 2.467-7.183 3.7-12.65 3.7v0c-5.467 0-9.69-1.233-12.67-3.7-2.987-2.467-4.48-6.05-4.48-10.75v0-20.55h11.05v20.4c0 1.933 0.517 3.473 1.55 4.62 1.033 1.153 2.533 1.73 4.5 1.73v0c1.967 0 3.477-0.583 4.53-1.75 1.047-1.167 1.57-2.7 1.57-4.6v0-20.4h11.05zM161.3-23.85c0 2.1-0.567 4-1.7 5.7-1.133 1.7-2.783 2.95-4.95 3.75v0l7.65 14.4h-12.4l-6.1-12.55h-4.1v12.55h-11.05v-34.4h21.05c2.467 0 4.577 0.473 6.33 1.42 1.747 0.953 3.063 2.237 3.95 3.85 0.88 1.62 1.32 3.38 1.32 5.28zM150.05-23.4c0-0.9-0.3-1.65-0.9-2.25-0.6-0.6-1.333-0.9-2.2-0.9v0h-7.25v6.35h7.25c0.867 0 1.6-0.31 2.2-0.93 0.6-0.613 0.9-1.37 0.9-2.27zM208.05 0h-10.95v-12.4c0-1.533 0.06-3.11 0.18-4.73 0.113-1.613 0.237-2.97 0.37-4.07 0.133-1.1 0.217-1.8 0.25-2.1v0h-0.2l-6.35 23.3h-8.65l-6.4-23.25h-0.2c0.033 0.3 0.127 0.99 0.28 2.07 0.147 1.087 0.287 2.437 0.42 4.05 0.133 1.62 0.2 3.197 0.2 4.73v0 12.4h-10.15v-34.4h15.6l5.2 19.85h0.2l5.15-19.85h15.05zM214.75 0v-34.4h29.75v8.25h-18.7v4.75h16v7.9h-16v5.25h19.05v8.25zM281.9-25.6h-11.25v25.6h-11.05v-25.6h-11.3v-8.8h33.6z" fill="#ffffff" fill-rule="nonzero" stroke="none" stroke-width="1" stroke-linecap="butt" stroke-linejoin="miter" stroke-miterlimit="10" stroke-dasharray="" stroke-dashoffset="0" font-family="none" font-weight="none" font-size="none" text-anchor="none" style="mix-blend-mode: normal" data-fill-palette-color="primary" opacity="1"></path><path transform="translate(0,38.6)" d="M21-35c3.3 0 6.267 0.5 8.9 1.5 2.633 1 4.727 2.473 6.28 4.42 1.547 1.953 2.32 4.33 2.32 7.13v0h-10.55c0-1.433-0.633-2.593-1.9-3.48-1.267-0.88-2.8-1.32-4.6-1.32v0c-2.6 0-4.567 0.69-5.9 2.07-1.333 1.387-2 3.347-2 5.88v0 3.2c0 2.533 0.667 4.49 2 5.87 1.333 1.387 3.3 2.08 5.9 2.08v0c1.8 0 3.333-0.427 4.6-1.28 1.267-0.847 1.9-1.937 1.9-3.27v0h-7.8v-7h18.35v19.2h-5.7l-1.1-3.4c-3.133 2.667-7.233 4-12.3 4v0c-5.7 0-9.983-1.493-12.85-4.48-2.867-2.98-4.3-7.42-4.3-13.32v0c0-5.833 1.627-10.26 4.88-13.28 3.247-3.013 7.87-4.52 13.87-4.52zM79.6-13.85c0 4.7-1.483 8.283-4.45 10.75-2.967 2.467-7.183 3.7-12.65 3.7v0c-5.467 0-9.69-1.233-12.67-3.7-2.987-2.467-4.48-6.05-4.48-10.75v0-20.55h11.05v20.4c0 1.933 0.517 3.473 1.55 4.62 1.033 1.153 2.533 1.73 4.5 1.73v0c1.967 0 3.477-0.583 4.53-1.75 1.047-1.167 1.57-2.7 1.57-4.6v0-20.4h11.05zM101.45-35c4.4 0 8.017 0.89 10.85 2.67 2.833 1.787 4.283 4.43 4.35 7.93v0 0.6h-10.35v-0.2c0-1-0.367-1.833-1.1-2.5-0.733-0.667-1.85-1-3.35-1v0c-1.467 0-2.59 0.217-3.37 0.65-0.787 0.433-1.18 0.967-1.18 1.6v0c0 0.9 0.533 1.567 1.6 2 1.067 0.433 2.783 0.883 5.15 1.35v0c2.767 0.567 5.043 1.157 6.83 1.77 1.78 0.62 3.337 1.63 4.67 3.03 1.333 1.4 2.017 3.3 2.05 5.7v0c0 4.067-1.373 7.083-4.12 9.05-2.753 1.967-6.43 2.95-11.03 2.95v0c-5.367 0-9.54-0.9-12.52-2.7-2.987-1.8-4.48-4.983-4.48-9.55v0h10.45c0 1.733 0.45 2.89 1.35 3.47 0.9 0.587 2.3 0.88 4.2 0.88v0c1.4 0 2.56-0.15 3.48-0.45 0.913-0.3 1.37-0.917 1.37-1.85v0c0-0.833-0.507-1.46-1.52-1.88-1.02-0.413-2.68-0.853-4.98-1.32v0c-2.8-0.6-5.117-1.227-6.95-1.88-1.833-0.647-3.433-1.72-4.8-3.22-1.367-1.5-2.05-3.533-2.05-6.1v0c0-3.767 1.46-6.543 4.38-8.33 2.913-1.78 6.603-2.67 11.07-2.67zM154.15-25.6h-11.25v25.6h-11.05v-25.6h-11.3v-8.8h33.6zM174.6-35c5.933 0 10.517 1.517 13.75 4.55 3.233 3.033 4.85 7.45 4.85 13.25v0c0 5.8-1.617 10.217-4.85 13.25-3.233 3.033-7.817 4.55-13.75 4.55v0c-5.933 0-10.507-1.51-13.72-4.53-3.22-3.013-4.83-7.437-4.83-13.27v0c0-5.833 1.61-10.26 4.83-13.28 3.213-3.013 7.787-4.52 13.72-4.52zM174.6-26.75c-2.367 0-4.167 0.717-5.4 2.15-1.233 1.433-1.85 3.367-1.85 5.8v0 3.2c0 2.433 0.617 4.367 1.85 5.8 1.233 1.433 3.033 2.15 5.4 2.15v0c2.367 0 4.177-0.717 5.43-2.15 1.247-1.433 1.87-3.367 1.87-5.8v0-3.2c0-2.433-0.623-4.367-1.87-5.8-1.253-1.433-3.063-2.15-5.43-2.15z" fill="#ffffff" fill-rule="nonzero" stroke="none" stroke-width="1" stroke-linecap="butt" stroke-linejoin="miter" stroke-miterlimit="10" stroke-dasharray="" stroke-dashoffset="0" font-family="none" font-weight="none" font-size="none" text-anchor="none" style="mix-blend-mode: normal" data-fill-palette-color="primary" opacity="1"></path></g></svg></g></svg></g></svg></g></svg></g><g transform="matrix(1,0,0,1,0,0.27296749508313667)"><svg viewBox="0 0 102.57301149396281 109.18699803325586" height="109.18699803325586" width="102.57301149396281"><g><svg xmlns="http://www.w3.org/2000/svg" xmlns:xlink="http://www.w3.org/1999/xlink" version="1.1" x="0" y="0" viewBox="8.947999999999997 6.303 82.10199999999999 87.39599999999999" enable-background="new 0 0 100 100" xml:space="preserve" height="109.18699803325586" width="102.57301149396281" class="icon-icon-0" data-fill-palette-color="accent" id="icon-0"><path d="M71.137 17.327c-0.193 0-0.39 0.003-0.59 0.01C66.21 10.5 58.648 6.303 50.516 6.303c-8.176 0-15.749 4.219-20.079 11.097-0.549-0.049-1.065-0.073-1.574-0.073-10.981 0-19.915 8.934-19.915 19.915s8.934 19.915 19.915 19.915c0.317 0 0.638-0.009 0.964-0.027v26.008c0 0.141 0.015 0.277 0.043 0.41-0.012 0.146-0.043 0.29-0.043 0.438 0 5.537 8.62 9.713 20.051 9.713 11.43 0 20.05-4.176 20.05-9.713 0-0.138-0.029-0.271-0.04-0.407 0.032-0.142 0.052-0.289 0.052-0.441v-26.02c0.401 0.026 0.799 0.039 1.195 0.039 10.981 0 19.915-8.934 19.915-19.915S82.118 17.327 71.137 17.327zM49.878 70.023c9.797 0 16.05 3.384 16.05 5.761 0 0.043 0.01 0.083 0.013 0.126v2.137c-3.596-2.32-9.333-3.775-16.063-3.775-6.722 0-12.454 1.451-16.051 3.766v-2.302C33.828 73.407 40.081 70.023 49.878 70.023zM49.878 89.697c-9.798 0-16.051-3.384-16.051-5.713s6.253-5.712 16.051-5.712c9.797 0 16.05 3.383 16.05 5.712S59.676 89.697 49.878 89.697zM71.137 53.156c-0.909 0-1.838-0.088-2.84-0.269-0.584-0.106-1.184 0.053-1.638 0.433-0.455 0.381-0.718 0.942-0.718 1.535v14.943c-1.909-1.232-4.42-2.215-7.368-2.869V51.548c0-1.104-0.896-2-2-2s-2 0.896-2 2v14.731c-1.499-0.162-3.064-0.256-4.695-0.256-1.636 0-3.206 0.095-4.709 0.257V51.548c0-1.104-0.896-2-2-2s-2 0.896-2 2v15.385c-2.935 0.652-5.438 1.631-7.341 2.857v-14.9c0-0.588-0.259-1.146-0.707-1.526-0.449-0.38-1.043-0.545-1.622-0.446-0.963 0.16-1.825 0.238-2.636 0.238-8.775 0-15.915-7.14-15.915-15.915s7.14-15.915 15.915-15.915c0.704 0 1.447 0.062 2.339 0.193 0.828 0.122 1.64-0.282 2.042-1.012 3.477-6.294 10.095-10.205 17.271-10.205 7.114 0 13.704 3.865 17.197 10.087 0.388 0.689 1.147 1.086 1.931 1.012 0.549-0.051 1.037-0.076 1.493-0.076 8.775 0 15.915 7.139 15.915 15.915S79.912 53.156 71.137 53.156z" fill="#f36527" data-fill-palette-color="accent"></path></svg></g></svg></g></svg></g><defs></defs></svg><rect width="395.52" height="82.44873315175188" fill="none" stroke="none" visibility="hidden"></rect></g></svg></g></svg>